<?xml version="1.0" encoding="utf-8"?>
<!-- Generator: Adobe Illustrator 16.0.0, SVG Export Plug-In . SVG Version: 6.00 Build 0)  -->
<!DOCTYPE svg PUBLIC "-//W3C//DTD SVG 1.1//EN" "http://www.w3.org/Graphics/SVG/1.1/DTD/svg11.dtd">
<svg version="1.1" id="Layer_1" xmlns="http://www.w3.org/2000/svg" xmlns:xlink="http://www.w3.org/1999/xlink" x="0px" y="0px"
	 width="595.28px" height="841.89px" viewBox="0 0 595.28 841.89" enable-background="new 0 0 595.28 841.89" xml:space="preserve">
<g>
	<path fill-rule="evenodd" clip-rule="evenodd" fill="#FFFFFF" stroke="#754C29" stroke-width="3" d="M304.781,199
		c107.719,0,195.045,84.762,195.045,189.323c0,104.568-87.326,189.32-195.045,189.32c-107.721,0-195.042-84.752-195.042-189.32
		C109.739,283.762,197.06,199,304.781,199z"/>
	<linearGradient id="SVGID_1_" gradientUnits="userSpaceOnUse" x1="239.7891" y1="151.8257" x2="333.3304" y2="492.2118">
		<stop  offset="0" style="stop-color:#9E752C"/>
		<stop  offset="1" style="stop-color:#603913"/>
	</linearGradient>
	<path fill-rule="evenodd" clip-rule="evenodd" fill="url(#SVGID_1_)" d="M304.781,205.626
		c103.948,0,188.217,81.795,188.217,182.697c0,100.906-84.269,182.695-188.217,182.695c-103.951,0-188.217-81.789-188.217-182.695
		C116.564,287.421,200.83,205.626,304.781,205.626z"/>
	<g>
		<defs>
			<path id="SVGID_2_" d="M304.781,205.626c103.948,0,188.217,81.795,188.217,182.697c0,100.906-84.269,182.695-188.217,182.695
				c-103.951,0-188.217-81.789-188.217-182.695C116.564,287.421,200.83,205.626,304.781,205.626z"/>
		</defs>
		<clipPath id="SVGID_3_">
			<use xlink:href="#SVGID_2_"  overflow="visible"/>
		</clipPath>
		<g clip-path="url(#SVGID_3_)">
			<g>
				<path fill-rule="evenodd" clip-rule="evenodd" fill="#FFFFFF" d="M270.438,389.893l-9.759-0.963
					c0,0-14.004,42.129-18.292,85.679c-4.643,47.209-3.267,95.776-3.267,95.776l21.968,2.164c0,0-7.407-46.976-5.057-92.82
					C258.355,434.242,270.438,389.893,270.438,389.893z M356.914,377.43c-47.21-4.643-91.062-4.748-91.062-4.748l-4.539,12.756
					c0,0,54.147-3.552,99.989-1.205c45.486,2.33,94.601,3.119,94.601,3.119l0.962-9.759
					C456.865,377.593,400.465,381.722,356.914,377.43z M454.363,389.893l-9.759-0.963c0,0-14.004,42.129-18.288,85.679
					c-4.648,47.209-3.271,95.776-3.271,95.776l21.962,2.164c0,0-7.401-46.976-5.052-92.82
					C442.274,434.242,454.363,389.893,454.363,389.893z M368.628,261.387c-9.211,10.63-166.515,150.566-166.515,150.566l9.144,3.888
					c0,0,149.93-130.745,157.255-144.44c12.493-0.693,130.914,153.124,130.914,153.124l9.944-0.137
					C509.37,424.388,384.893,261.824,368.628,261.387z M301.245,530.288c-2.993,30.424-0.876,40.875-0.876,40.875l6.805-0.703
					c0,0,1.347-7.333,2.858-36.871c1.502-29.315,1.935-46.852,1.935-46.852l-6.294-0.627
					C305.673,486.11,304.007,502.224,301.245,530.288z M353.498,486.11c0,0,1.212,17.161-1.55,45.228
					c-2.993,30.421-3.765,39.825-3.765,39.825l6.815-0.703c0,0,3.705-19.132,5.217-48.67c1.5-29.318-0.434-35.053-0.434-35.053
					L353.498,486.11z M306.029,481.038l54.291-0.789v-6.554l-53.502,2.618L306.029,481.038z M325.509,456.266l0.071-29.923
					c0.092-0.007,0.14-0.012,0.14-0.012s0-0.903,0-2.097c-0.009-2.312-0.009-5.719-0.009-5.719s-13.35,1.629-24.88-0.162
					c-12.49-1.935-22.192,0.596-22.192,0.596l-0.24,7.402c0,0,0.036-0.01,0.089-0.025l-0.566,29.236L325.509,456.266z
					 M285.027,424.993c4.539-0.666,10.813-1.086,16.891,0.165c6.309,1.298,12.971,1.514,17.637,1.45l1.103,23.612l-36.667,0.77
					L285.027,424.993z M395.269,418.354c-12.493-1.935-22.195,0.596-22.195,0.596l-0.23,7.402c0,0,0.033-0.01,0.081-0.023
					l-0.563,29.234l47.594,0.703l0.064-29.923c0.091-0.007,0.139-0.012,0.139-0.012s0-0.903,0-2.097c0-2.312,0-5.719,0-5.719
					S406.799,420.145,395.269,418.354z M413.994,426.608l1.103,23.612l-36.662,0.77l1.039-25.998
					c4.535-0.666,10.806-1.085,16.882,0.166C402.665,426.456,409.327,426.672,413.994,426.608z M150.676,269.428
					c-0.002,0.067-0.024,0.134-0.024,0.203c0,1.721,1.254,3.406,3.549,4.648c3.899,2.116,9.977,2.561,16.921,1.299
					c1.415,1.973,4.966,4.139,9.182,4.807c2.931,0.468,8.287,0.524,13.47-3.494c2.999,2.321,8.657,3.98,14.051,3.835
					c5.332-0.135,9.197-1.963,10.91-5.072c3.956,0.64,9.452,0.308,13.25-1.443c1.853-0.857,4.388-2.58,4.388-5.597
					c0-0.827-0.198-1.752-0.64-2.781c1.975-0.934,3.844-2.624,4.896-4.493l4.185-3.105c-2.031-1.194-3.73-2.898-4.923-4.928
					l-0.765,1.029c-1.308-0.909-3.31-1.728-6.387-2.194c0.491-0.857,0.765-1.719,0.765-2.552c0-0.175-0.016-0.349-0.037-0.522
					l4.964,0.734c-0.288-1.117-0.442-2.281-0.442-3.484c0-1.203,0.154-2.372,0.442-3.484l-9.637,1.425
					c-3.131-1.258-8.006-1.888-14.298-0.793c-0.746-2.479-4.23-4.621-9.38-5.54c-5.905-1.049-13.556-0.26-18.172,3.528
					c-0.996-0.554-2.29-1.01-3.873-1.343c-5.574-1.155-14.692-0.673-19.389,1.876c-1.521,0.824-2.445,1.814-2.783,2.898
					c-4.503-0.703-9.764,0.192-13.414,2.492c-2.405,1.521-3.609,3.331-3.609,5.188c0,1.347,0.644,2.714,1.913,4.014
					c-3,1.367-4.771,3.493-4.771,5.785c0,0.54,0.099,1.087,0.301,1.636C142.363,266.849,145.931,268.86,150.676,269.428z
					 M265.168,242.835c0.294,1.112,0.448,2.281,0.448,3.484c0,1.203-0.153,2.367-0.448,3.484l23.567-3.484L265.168,242.835z
					 M263.716,253.308c-1.199,2.029-2.893,3.728-4.928,4.928l19.128,14.196L263.716,253.308z M263.163,246.319
					c0-6.275-5.083-11.367-11.363-11.367c-6.275,0-11.361,5.091-11.361,11.367c0,6.275,5.086,11.362,11.361,11.362
					C258.08,257.681,263.163,252.594,263.163,246.319z M248.316,259.688l3.484,23.561l3.485-23.561
					c-1.113,0.289-2.281,0.442-3.485,0.442C250.597,260.13,249.428,259.977,248.316,259.688z M255.285,232.946l-3.485-23.562
					l-3.479,23.562c1.106-0.288,2.276-0.443,3.479-0.443C253.004,232.503,254.172,232.658,255.285,232.946z M244.808,234.403
					l-19.125-14.201l14.208,19.129C241.083,237.296,242.777,235.597,244.808,234.403z M263.716,239.331l14.201-19.129
					l-19.128,14.201C260.823,235.597,262.517,237.296,263.716,239.331z M350.407,229.649c0,0.033-0.01,0.067-0.01,0.1
					c0,0.862,0.626,1.699,1.781,2.325c1.944,1.059,4.984,1.281,8.46,0.649c0.703,0.987,2.483,2.065,4.582,2.401
					c1.473,0.236,4.148,0.266,6.736-1.742c1.502,1.155,4.331,1.982,7.026,1.916c2.667-0.067,4.601-0.982,5.458-2.537
					c1.971,0.322,4.725,0.154,6.621-0.722c0.933-0.428,2.193-1.29,2.193-2.795c0-0.414-0.096-0.876-0.316-1.396
					c1.502-0.707,2.887-2.291,2.887-3.735c0-0.134-0.01-0.27-0.037-0.394c-0.155-0.832-0.954-2.194-4.342-2.715
					c0.241-0.433,0.376-0.856,0.376-1.275c0-0.803-0.452-1.554-1.358-2.155c-1.404-0.934-4.225-1.594-8.142-0.91
					c-0.377-1.242-2.116-2.31-4.698-2.767c-2.944-0.524-6.773-0.129-9.085,1.766c-0.491-0.279-1.136-0.51-1.935-0.674
					c-2.781-0.577-7.343-0.336-9.691,0.934c-0.761,0.414-1.222,0.915-1.386,1.453c-2.262-0.35-4.89,0.096-6.709,1.248
					c-1.203,0.754-1.809,1.66-1.809,2.593c0,0.674,0.326,1.358,0.962,2.002c-1.502,0.689-2.388,1.752-2.388,2.898
					c0,0.268,0.049,0.542,0.146,0.818C346.259,228.359,348.04,229.371,350.407,229.649z M173.313,440.338
					c0,0,27.941,3.669,25.121,0.634c-25.274-27.652-19.706-37.831-19.706-37.831s14.725-2.81,22.531,1.314
					c-21.511-20.521-30.091-55.054-30.091-55.054s-31.377,45.717-43.951,47.884c12.574,1.735,24.157-0.896,21.79,2.608
					c-3.177,4.696-18.99,17.171-40.886,34.947c3.253,0,27.397,5.187,27.397,5.187L110.945,471l34.164-3.682l-3.677,39.516
					l12.18,8.934l4.494-45.855c0,0,45.55,6.188,44.461,4.024C185.013,460.495,173.313,440.338,173.313,440.338z"/>
			</g>
		</g>
	</g>
</g>
</svg>
