<?xml version="1.0" encoding="utf-8"?>
<!-- Generator: Adobe Illustrator 16.0.0, SVG Export Plug-In . SVG Version: 6.00 Build 0)  -->
<!DOCTYPE svg PUBLIC "-//W3C//DTD SVG 1.1//EN" "http://www.w3.org/Graphics/SVG/1.1/DTD/svg11.dtd">
<svg version="1.1" id="Layer_1" xmlns="http://www.w3.org/2000/svg" xmlns:xlink="http://www.w3.org/1999/xlink" x="0px" y="0px"
	 width="283.464px" height="274.96px" viewBox="0 0 283.464 274.96" enable-background="new 0 0 283.464 274.96"
	 xml:space="preserve">
<g>
	<path fill-rule="evenodd" clip-rule="evenodd" fill="#FFFFFF" stroke="#754C29" stroke-width="2.1582" d="M141.731,1.281
		c77.494,0,140.316,60.979,140.316,136.2c0,75.228-62.822,136.199-140.316,136.199S1.417,212.708,1.417,137.481
		C1.417,62.26,64.237,1.281,141.731,1.281z"/>
	<linearGradient id="SVGID_1_" gradientUnits="userSpaceOnUse" x1="94.9756" y1="-32.6553" x2="162.2695" y2="212.2193">
		<stop  offset="0" style="stop-color:#9E752C"/>
		<stop  offset="1" style="stop-color:#603913"/>
	</linearGradient>
	<path fill-rule="evenodd" clip-rule="evenodd" fill="url(#SVGID_1_)" d="M141.731,6.049c74.781,0,135.404,58.843,135.404,131.432
		c0,72.592-60.623,131.433-135.404,131.433c-74.782,0-135.403-58.841-135.403-131.433C6.328,64.892,66.949,6.049,141.731,6.049z"/>
	<g>
		<defs>
			<path id="SVGID_2_" d="M141.731,6.049c74.781,0,135.404,58.843,135.404,131.432c0,72.592-60.623,131.433-135.404,131.433
				c-74.782,0-135.403-58.841-135.403-131.433C6.328,64.892,66.949,6.049,141.731,6.049z"/>
		</defs>
		<clipPath id="SVGID_3_">
			<use xlink:href="#SVGID_2_"  overflow="visible"/>
		</clipPath>
		<g clip-path="url(#SVGID_3_)">
			<g>
				<path fill-rule="evenodd" clip-rule="evenodd" fill="#FFFFFF" d="M117.025,138.61l-7.021-0.692c0,0-10.075,30.307-13.159,61.638
					c-3.341,33.963-2.35,68.901-2.35,68.901l15.804,1.559c0,0-5.33-33.795-3.639-66.777
					C108.333,170.516,117.025,138.61,117.025,138.61z M179.235,129.644c-33.962-3.34-65.509-3.416-65.509-3.416l-3.266,9.177
					c0,0,38.953-2.555,71.932-0.867c32.724,1.677,68.059,2.244,68.059,2.244l0.688-7.021
					C251.139,129.761,210.566,132.732,179.235,129.644z M249.341,138.61l-7.021-0.692c0,0-10.074,30.307-13.157,61.638
					c-3.344,33.963-2.353,68.901-2.353,68.901l15.8,1.559c0,0-5.325-33.795-3.634-66.777
					C240.644,170.516,249.341,138.61,249.341,138.61z M187.663,46.163C181.036,53.81,67.872,154.481,67.872,154.481l6.578,2.796
					c0,0,107.86-94.058,113.129-103.91c8.988-0.499,94.182,110.157,94.182,110.157l7.154-0.098
					C288.915,163.426,199.364,46.477,187.663,46.163z M139.187,239.613c-2.152,21.887-0.63,29.404-0.63,29.404l4.897-0.506
					c0,0,0.968-5.274,2.056-26.525c1.08-21.089,1.391-33.705,1.391-33.705l-4.527-0.451
					C142.373,207.83,141.174,219.422,139.187,239.613z M176.779,207.83c0,0,0.872,12.346-1.115,32.537
					c-2.154,21.886-2.709,28.65-2.709,28.65l4.903-0.506c0,0,2.665-13.763,3.754-35.014c1.079-21.091-0.313-25.217-0.313-25.217
					L176.779,207.83z M142.629,204.181l39.058-0.568v-4.714l-38.491,1.884L142.629,204.181z M156.642,186.358l0.054-21.524
					c0.063-0.006,0.1-0.009,0.1-0.009s0-0.65,0-1.509c-0.007-1.663-0.007-4.113-0.007-4.113s-9.604,1.171-17.899-0.116
					c-8.986-1.393-15.965,0.427-15.965,0.427l-0.173,5.325c0,0,0.037-0.011,0.064-0.018l-0.408,21.033L156.642,186.358z
					 M127.521,163.865c3.266-0.479,7.773-0.786,12.151,0.115c4.54,0.934,9.331,1.089,12.689,1.043l0.792,16.988l-26.378,0.554
					L127.521,163.865z M206.828,159.086c-8.988-1.393-15.967,0.427-15.967,0.427l-0.165,5.325c0,0,0.035-0.01,0.058-0.017
					l-0.405,21.032l34.239,0.504l0.047-21.524c0.063-0.006,0.1-0.009,0.1-0.009s0-0.65,0-1.509c0-1.663,0-4.113,0-4.113
					S215.124,160.374,206.828,159.086z M220.3,165.023l0.792,16.988l-26.376,0.554l0.749-18.7c3.265-0.48,7.769-0.785,12.145,0.115
					C212.15,164.914,216.942,165.069,220.3,165.023z M30.868,51.947c-0.002,0.049-0.018,0.097-0.018,0.146
					c0,1.238,0.902,2.451,2.553,3.344c2.805,1.523,7.178,1.843,12.172,0.935c1.018,1.419,3.572,2.978,6.605,3.458
					c2.108,0.337,5.962,0.377,9.691-2.514c2.156,1.67,6.228,2.864,10.108,2.76c3.836-0.097,6.617-1.413,7.849-3.649
					c2.847,0.46,6.8,0.222,9.531-1.039c1.333-0.617,3.158-1.856,3.158-4.027c0-0.594-0.142-1.26-0.46-2
					c1.416-0.669,2.749-1.882,3.507-3.221l3.026-2.246c-1.461-0.858-2.683-2.085-3.542-3.545l-0.55,0.741
					c-0.94-0.654-2.381-1.243-4.594-1.579c0.353-0.617,0.55-1.237,0.55-1.835c0-0.126-0.011-0.251-0.027-0.376l3.571,0.528
					c-0.207-0.803-0.318-1.641-0.318-2.507s0.111-1.707,0.318-2.506l-6.959,1.029c-2.253-0.903-5.738-1.361-10.259-0.574
					c-0.537-1.784-3.043-3.325-6.748-3.986c-4.248-0.754-9.752-0.187-13.073,2.539c-0.717-0.399-1.647-0.728-2.787-0.967
					c-4.01-0.831-10.569-0.484-13.948,1.35c-1.094,0.593-1.759,1.306-2.001,2.085c-3.24-0.505-7.024,0.138-9.65,1.792
					c-1.73,1.095-2.597,2.396-2.597,3.732c0,0.969,0.463,1.953,1.377,2.888c-2.158,0.982-3.433,2.513-3.433,4.161
					c0,0.388,0.072,0.782,0.217,1.177C24.887,50.091,27.454,51.539,30.868,51.947z M101.11,44.94l2.506,16.951l2.508-16.951
					c-0.8,0.208-1.641,0.318-2.508,0.318C102.751,45.258,101.91,45.148,101.11,44.94z M112.189,40.35
					c-0.863,1.46-2.081,2.682-3.545,3.545l13.761,10.212L112.189,40.35z M111.791,35.322c0-4.514-3.657-8.177-8.175-8.177
					c-4.514,0-8.173,3.663-8.173,8.177c0,4.515,3.659,8.174,8.173,8.174C108.134,43.497,111.791,39.837,111.791,35.322z
					 M113.233,32.816c0.212,0.799,0.322,1.64,0.322,2.506s-0.11,1.704-0.322,2.507l16.954-2.507L113.233,32.816z M98.586,26.75
					L84.828,16.534l10.22,13.761C95.907,28.831,97.125,27.609,98.586,26.75z M106.124,25.702l-2.508-16.95l-2.502,16.95
					c0.795-0.207,1.637-0.319,2.502-0.319C104.483,25.383,105.324,25.495,106.124,25.702z M112.189,30.295l10.215-13.761
					L108.644,26.75C110.108,27.609,111.326,28.831,112.189,30.295z M174.555,23.331c0,0.023-0.008,0.048-0.008,0.072
					c0,0.62,0.451,1.222,1.282,1.671c1.398,0.762,3.585,0.921,6.085,0.468c0.507,0.71,1.787,1.486,3.298,1.728
					c1.059,0.169,2.984,0.191,4.846-1.252c1.08,0.83,3.115,1.425,5.054,1.377c1.92-0.048,3.311-0.707,3.927-1.824
					c1.419,0.231,3.399,0.112,4.764-0.519c0.67-0.308,1.578-0.928,1.578-2.012c0-0.297-0.068-0.63-0.228-1.004
					c1.08-0.508,2.078-1.648,2.078-2.686c0-0.096-0.009-0.193-0.028-0.284c-0.11-0.599-0.687-1.579-3.123-1.953
					c0.174-0.312,0.271-0.616,0.271-0.917c0-0.578-0.326-1.117-0.979-1.55c-1.009-0.672-3.037-1.146-5.855-0.655
					c-0.27-0.893-1.523-1.662-3.379-1.99c-2.12-0.378-4.873-0.093-6.538,1.27c-0.352-0.2-0.815-0.366-1.392-0.485
					c-2-0.415-5.282-0.241-6.972,0.672c-0.546,0.298-0.877,0.658-0.995,1.045c-1.628-0.252-3.519,0.068-4.826,0.897
					c-0.866,0.543-1.303,1.195-1.303,1.866c0,0.485,0.235,0.977,0.691,1.439c-1.08,0.497-1.717,1.261-1.717,2.085
					c0,0.193,0.035,0.39,0.104,0.588C171.571,22.401,172.852,23.13,174.555,23.331z M47.152,174.9c0,0,20.101,2.641,18.073,0.457
					c-18.183-19.895-14.176-27.217-14.176-27.217s10.593-2.021,16.209,0.946c-15.475-14.763-21.649-39.605-21.649-39.605
					S23.036,142.37,13.99,143.927c9.046,1.25,17.379-0.644,15.676,1.876c-2.285,3.38-13.661,12.354-29.413,25.143
					c2.339,0,19.709,3.732,19.709,3.732L2.285,196.959l24.577-2.648l-2.645,28.429l8.763,6.425l3.233-32.987
					c0,0,32.768,4.451,31.985,2.895C55.569,189.402,47.152,174.9,47.152,174.9z"/>
			</g>
		</g>
	</g>
</g>
</svg>
